<svg id="Fondo" xmlns="http://www.w3.org/2000/svg" viewBox="0 0 1000 1000"><title>Logo Monocromático Negro</title><rect x="0.78" y="0.78" width="998.43" height="998.43" fill="#fff"/><path d="M998.43,1.57V998.43H1.57V1.57H998.43M1000,0H0V1000H1000V0Z"/><path d="M248.52,459.5v1.6a13.47,13.47,0,0,0-4.12.6,3,3,0,0,0-1.88,1.92A14.5,14.5,0,0,0,242,468v40.64a13.84,13.84,0,0,0,.36,3.68,2.3,2.3,0,0,0,1.44,1.6,9.8,9.8,0,0,0,3.24.4H251a10.74,10.74,0,0,0,5.12-1.28,14.19,14.19,0,0,0,4.32-3.64,20.71,20.71,0,0,0,3.2-5.64,34.55,34.55,0,0,0,1.92-7.28h1.84q-.24,2.71-.24,7c0,1.23,0,3,.08,5.36s.22,4.77.48,7.28c-2.72-.11-5.78-.17-9.2-.2s-6.45,0-9.12,0h-5.12q-3.12,0-6.72,0l-7.28.08q-3.67,0-7,.12v-1.6a14.21,14.21,0,0,0,3.84-.64,2.76,2.76,0,0,0,1.72-1.92,15.56,15.56,0,0,0,.44-4.32V468a15.5,15.5,0,0,0-.44-4.36,2.89,2.89,0,0,0-1.76-1.92,11.65,11.65,0,0,0-3.8-.6v-1.6c1.34.05,3.14.11,5.4.16s4.68.08,7.24.08q3.53,0,6.92-.08C245.15,459.61,247,459.55,248.52,459.5Z" fill="#1a1a1a"/><path d="M306.92,459.34l19.44,50.08a9.18,9.18,0,0,0,2.52,4,4.91,4.91,0,0,0,2.52,1.16v1.6c-1.6-.11-3.48-.17-5.64-.2s-4.33,0-6.52,0q-3.67,0-7,0c-2.19,0-3.92.09-5.2.2v-1.6c2.72-.11,4.44-.57,5.16-1.4s.55-2.6-.52-5.32l-13.6-37.2,1.44-2.08L287.4,500.22a31.28,31.28,0,0,0-2.12,7.2,7.61,7.61,0,0,0,.4,4.32,4.23,4.23,0,0,0,2.48,2.12,13.9,13.9,0,0,0,4.12.68v1.6c-1.76-.11-3.44-.17-5-.2s-3.22,0-4.88,0c-1.17,0-2.28,0-3.32,0a26.19,26.19,0,0,0-2.76.2v-1.6a6.65,6.65,0,0,0,3.44-2.16,19.09,19.09,0,0,0,3.44-6.24l18.24-46.8c.85.05,1.77.08,2.76.08S306.07,459.39,306.92,459.34Zm5.6,33.76v1.6H288.68l.8-1.6Z" fill="#1a1a1a"/><path d="M368.2,459.5c1.33.05,3.13.11,5.4.16s4.52.08,6.76.08q3.84,0,7.44-.08c2.4-.05,4.11-.08,5.12-.08a39.73,39.73,0,0,1,12.36,1.64,15.07,15.07,0,0,1,7.36,4.76,11.82,11.82,0,0,1,2.44,7.52A14.44,14.44,0,0,1,414,479a13.76,13.76,0,0,1-3.8,5.12,19.51,19.51,0,0,1-7.32,3.76,41.26,41.26,0,0,1-11.68,1.4h-7.68v-1.6h6.88c3.15,0,5.53-.6,7.16-1.8a9.08,9.08,0,0,0,3.36-4.8,22.86,22.86,0,0,0,.92-6.68q0-6.31-2.24-9.8t-7.68-3.48c-2.08,0-3.43.45-4,1.36s-.92,2.75-.92,5.52v39.68a16,16,0,0,0,.44,4.32,2.78,2.78,0,0,0,1.72,1.92,14.21,14.21,0,0,0,3.84.64v1.6c-1.44-.11-3.25-.17-5.44-.2s-4.4,0-6.64,0q-3.84,0-7.24,0c-2.27,0-4.07.09-5.4.2v-1.6a14.21,14.21,0,0,0,3.84-.64,2.78,2.78,0,0,0,1.72-1.92,16,16,0,0,0,.44-4.32V468a15.89,15.89,0,0,0-.44-4.36A2.89,2.89,0,0,0,372,461.7a11.7,11.7,0,0,0-3.8-.6Zm15.12,28.4q3.44.08,6,.32l4.44.44c1.28.13,2.43.23,3.44.28q7.27.65,10.76,3.12a11.6,11.6,0,0,1,4.52,7.44l1.84,8.24a15.77,15.77,0,0,0,1.52,4.48,2.58,2.58,0,0,0,2.32,1.28,3.64,3.64,0,0,0,1.72-.52,7.64,7.64,0,0,0,1.48-1.32l1.12,1a13.3,13.3,0,0,1-4.64,3.56,15,15,0,0,1-6,1.08,12.7,12.7,0,0,1-7.12-1.84c-1.87-1.23-3.09-3.49-3.68-6.8l-1.44-8a42.92,42.92,0,0,0-1.36-5.88,10.25,10.25,0,0,0-2.2-4,5.07,5.07,0,0,0-3.88-1.48h-8.64Z" fill="#1a1a1a"/><path d="M474.36,459.5c-.21,2.35-.36,4.61-.44,6.8s-.12,3.87-.12,5,0,2.08.08,3,.11,1.76.16,2.4H472.2a30.64,30.64,0,0,0-2.48-9.24,10.26,10.26,0,0,0-4.36-4.8,13.43,13.43,0,0,0-6.28-1.4H455.8a11.65,11.65,0,0,0-3.52.4,2.42,2.42,0,0,0-1.6,1.6,12.4,12.4,0,0,0-.4,3.68v41.6a12.4,12.4,0,0,0,.4,3.68,2.42,2.42,0,0,0,1.6,1.6,11.65,11.65,0,0,0,3.52.4h3.92a12.7,12.7,0,0,0,6.36-1.56,12.47,12.47,0,0,0,4.72-5.32,34,34,0,0,0,3-10.16h1.84q-.24,2.57-.24,6.72c0,1.23,0,3,.08,5.2s.21,4.56.48,7c-2.72-.11-5.79-.17-9.2-.2s-6.45,0-9.12,0h-5.12q-3.12,0-6.72,0l-7.28.08q-3.67,0-7,.12v-1.6a14.21,14.21,0,0,0,3.84-.64,2.78,2.78,0,0,0,1.72-1.92,16,16,0,0,0,.44-4.32V468a15.89,15.89,0,0,0-.44-4.36,2.89,2.89,0,0,0-1.76-1.92,11.7,11.7,0,0,0-3.8-.6v-1.6q3.29.08,7,.12l7.28.08q3.6,0,6.72,0h5.12q3.67,0,8.36,0C469.12,459.67,471.91,459.61,474.36,459.5Zm-12.48,27.36v1.6h-14v-1.6Zm2.32-10.56c-.21,3-.31,5.36-.28,7s0,3.07,0,4.4,0,2.8.08,4.4.19,3.92.4,7H462.6a19.32,19.32,0,0,0-1.48-5.2,9.7,9.7,0,0,0-3.08-3.88,8.5,8.5,0,0,0-5.2-1.48v-1.6a7.81,7.81,0,0,0,4.08-1,8.49,8.49,0,0,0,2.76-2.64,15.66,15.66,0,0,0,1.72-3.48,25.16,25.16,0,0,0,1-3.44Z" fill="#1a1a1a"/><path d="M510.28,458.46a20.75,20.75,0,0,1,7.28,1,28.75,28.75,0,0,1,4.4,2.12q1,.56,1.56.84a2.67,2.67,0,0,0,1.16.28,1.21,1.21,0,0,0,1.16-.88,11.6,11.6,0,0,0,.6-2.64h1.84c-.06,1-.12,2.23-.2,3.64s-.13,3.27-.16,5.56,0,5.31,0,9H526a26.77,26.77,0,0,0-1.92-8.08,16.78,16.78,0,0,0-4.52-6.44,10.6,10.6,0,0,0-7.16-2.52,9.27,9.27,0,0,0-6.32,2.16,7.52,7.52,0,0,0-2.48,6,9.28,9.28,0,0,0,1.6,5.48,18.79,18.79,0,0,0,4.68,4.44q3.07,2.16,7.48,5.2a77.31,77.31,0,0,1,6.88,5,21.1,21.1,0,0,1,4.88,5.6,14.45,14.45,0,0,1,1.84,7.44,13.49,13.49,0,0,1-2.76,8.72,16.86,16.86,0,0,1-7.24,5.16,27.19,27.19,0,0,1-9.84,1.72,26.42,26.42,0,0,1-7.92-1,32.77,32.77,0,0,1-5-2,5.74,5.74,0,0,0-2.72-1.12,1.21,1.21,0,0,0-1.16.88,11.6,11.6,0,0,0-.6,2.64H492c.11-1.28.17-2.77.2-4.48s0-3.93.08-6.68,0-6.23,0-10.44h1.84a39.78,39.78,0,0,0,1.8,9.88,16.61,16.61,0,0,0,4.56,7.4,11.69,11.69,0,0,0,8.2,2.8,11.94,11.94,0,0,0,5-1,8.57,8.57,0,0,0,3.56-3,8.67,8.67,0,0,0,1.36-5,10.73,10.73,0,0,0-1.56-5.84,19.24,19.24,0,0,0-4.24-4.64,67.9,67.9,0,0,0-6.2-4.4c-2.51-1.65-4.85-3.31-7-5a20.65,20.65,0,0,1-5.24-5.68,14.24,14.24,0,0,1-2-7.6,13.09,13.09,0,0,1,2.52-8.28,14.86,14.86,0,0,1,6.64-4.8A24.48,24.48,0,0,1,510.28,458.46Z" fill="#1a1a1a"/><path d="M587.8,459.5c-.22,2.35-.36,4.61-.44,6.8s-.12,3.87-.12,5,0,2.08.08,3,.1,1.76.16,2.4h-1.84a30.93,30.93,0,0,0-2.48-9.24,10.31,10.31,0,0,0-4.36-4.8,13.43,13.43,0,0,0-6.28-1.4h-3.28a11.65,11.65,0,0,0-3.52.4,2.4,2.4,0,0,0-1.6,1.6,12.4,12.4,0,0,0-.4,3.68v41.6a12.4,12.4,0,0,0,.4,3.68,2.4,2.4,0,0,0,1.6,1.6,11.65,11.65,0,0,0,3.52.4h3.92a12.7,12.7,0,0,0,6.36-1.56,12.47,12.47,0,0,0,4.72-5.32,34.64,34.64,0,0,0,3-10.16h1.84q-.24,2.57-.24,6.72c0,1.23,0,3,.08,5.2s.21,4.56.48,7c-2.72-.11-5.79-.17-9.2-.2s-6.46,0-9.12,0H566q-3.12,0-6.72,0L552,516q-3.69,0-7,.12v-1.6a14.36,14.36,0,0,0,3.84-.64,2.8,2.8,0,0,0,1.72-1.92,16,16,0,0,0,.44-4.32V468a15.89,15.89,0,0,0-.44-4.36,2.91,2.91,0,0,0-1.76-1.92,11.7,11.7,0,0,0-3.8-.6v-1.6q3.27.08,7,.12l7.28.08q3.6,0,6.72,0h5.12q3.67,0,8.36,0C582.56,459.67,585.34,459.61,587.8,459.5Zm-12.48,27.36v1.6h-14v-1.6Zm2.32-10.56q-.33,4.56-.28,7c0,1.6,0,3.07,0,4.4s0,2.8.08,4.4.19,3.92.4,7H576a19.32,19.32,0,0,0-1.48-5.2,9.7,9.7,0,0,0-3.08-3.88,8.52,8.52,0,0,0-5.2-1.48v-1.6a7.81,7.81,0,0,0,4.08-1,8.49,8.49,0,0,0,2.76-2.64,15.66,15.66,0,0,0,1.72-3.48,28.39,28.39,0,0,0,1-3.44Z" fill="#1a1a1a"/><path d="M603.72,459.5c1.33.05,3.13.11,5.4.16s4.52.08,6.76.08q3.84,0,7.44-.08c2.4-.05,4.1-.08,5.12-.08a39.73,39.73,0,0,1,12.36,1.64,15.07,15.07,0,0,1,7.36,4.76,11.88,11.88,0,0,1,2.44,7.52,14.63,14.63,0,0,1-1.12,5.48,13.87,13.87,0,0,1-3.8,5.12,19.51,19.51,0,0,1-7.32,3.76,41.31,41.31,0,0,1-11.68,1.4H619v-1.6h6.88q4.71,0,7.16-1.8a9.19,9.19,0,0,0,3.36-4.8,22.86,22.86,0,0,0,.92-6.68q0-6.31-2.24-9.8t-7.68-3.48c-2.08,0-3.43.45-4,1.36s-.92,2.75-.92,5.52v39.68a15.56,15.56,0,0,0,.44,4.32,2.76,2.76,0,0,0,1.72,1.92,14.21,14.21,0,0,0,3.84.64v1.6c-1.44-.11-3.26-.17-5.44-.2s-4.4,0-6.64,0c-2.56,0-5,0-7.24,0s-4.07.09-5.4.2v-1.6a14.36,14.36,0,0,0,3.84-.64,2.8,2.8,0,0,0,1.72-1.92,16,16,0,0,0,.44-4.32V468a15.89,15.89,0,0,0-.44-4.36,2.91,2.91,0,0,0-1.76-1.92,11.7,11.7,0,0,0-3.8-.6Zm15.12,28.4q3.43.08,6,.32l4.44.44c1.28.13,2.42.23,3.44.28q7.27.65,10.76,3.12A11.64,11.64,0,0,1,648,499.5l1.84,8.24a15.46,15.46,0,0,0,1.52,4.48,2.57,2.57,0,0,0,2.32,1.28,3.67,3.67,0,0,0,1.72-.52,7.94,7.94,0,0,0,1.48-1.32l1.12,1a13.3,13.3,0,0,1-4.64,3.56,15,15,0,0,1-6,1.08,12.68,12.68,0,0,1-7.12-1.84c-1.87-1.23-3.1-3.49-3.68-6.8l-1.44-8a44.45,44.45,0,0,0-1.36-5.88,10.38,10.38,0,0,0-2.2-4,5.09,5.09,0,0,0-3.88-1.48H619Z" fill="#1a1a1a"/><path d="M716.76,459.5v1.6a9.85,9.85,0,0,0-3.72,2.8,20.79,20.79,0,0,0-3.64,6.72L692.52,516.3a11.71,11.71,0,0,0-1.36-.08h-2.8a11.58,11.58,0,0,0-1.36.08l-20.4-50.08a9.46,9.46,0,0,0-2.48-4,4.72,4.72,0,0,0-2.56-1.16v-1.6c1.6.05,3.48.11,5.64.16s4.33.08,6.52.08q3.67,0,6.92-.08c2.16-.05,3.9-.11,5.24-.16v1.6a13.22,13.22,0,0,0-4,.6,2.21,2.21,0,0,0-1.6,1.92,9.6,9.6,0,0,0,1,4.2l14.56,37-1.68,2,11-29.76a32.51,32.51,0,0,0,2.24-9.44c.05-2.29-.51-4-1.68-5a7.82,7.82,0,0,0-5-1.6v-1.6l5.12.16c1.6,0,3.22.08,4.88.08,1.17,0,2.28,0,3.32-.08S716,459.55,716.76,459.5Z" fill="#1a1a1a"/><path d="M747.48,459.34l19.44,50.08a9,9,0,0,0,2.52,4,4.84,4.84,0,0,0,2.52,1.16v1.6c-1.6-.11-3.48-.17-5.64-.2s-4.34,0-6.52,0q-3.69,0-7,0c-2.19,0-3.92.09-5.2.2v-1.6c2.72-.11,4.44-.57,5.16-1.4s.54-2.6-.52-5.32l-13.6-37.2,1.44-2.08L728,500.22a30.78,30.78,0,0,0-2.12,7.2,7.61,7.61,0,0,0,.4,4.32,4.17,4.17,0,0,0,2.48,2.12,13.84,13.84,0,0,0,4.12.68v1.6c-1.76-.11-3.44-.17-5-.2s-3.23,0-4.88,0c-1.18,0-2.28,0-3.32,0a26.19,26.19,0,0,0-2.76.2v-1.6a6.69,6.69,0,0,0,3.44-2.16,19.28,19.28,0,0,0,3.44-6.24L742,459.34c.85.05,1.77.08,2.76.08S746.62,459.39,747.48,459.34Zm5.6,33.76v1.6H729.24l.8-1.6Z" fill="#1a1a1a"/><line x1="300" y1="526.14" x2="700" y2="526.14" fill="#1a1a1a" stroke="#1a1a1a" stroke-miterlimit="10"/><path d="M414.3,538.89v.28a2.36,2.36,0,0,0-.72.11.53.53,0,0,0-.33.34,2.38,2.38,0,0,0-.08.76v6.94a2.46,2.46,0,0,0,.08.76.5.5,0,0,0,.33.33,2.65,2.65,0,0,0,.72.12v.28l-.8,0h-2l-.77,0v-.28a2.65,2.65,0,0,0,.72-.12.5.5,0,0,0,.33-.33,2.46,2.46,0,0,0,.08-.76v-7.7l.06,0-3.43,9.22h-.22l-3.53-9.09v7.39a2.72,2.72,0,0,0,.09.79.64.64,0,0,0,.36.41,2.55,2.55,0,0,0,.82.15v.28l-.66,0h-1.47l-.6,0v-.28a2,2,0,0,0,.72-.15.6.6,0,0,0,.33-.41,2.72,2.72,0,0,0,.09-.79v-6.8a2.32,2.32,0,0,0-.09-.76.49.49,0,0,0-.33-.34,2.36,2.36,0,0,0-.72-.11v-.28l.6,0,.7,0,.64,0,.55,0,3.18,8.38-.24.11,3.15-8.44h.66l1,0Z" fill="#1a1a1a"/><path d="M421.15,538.89v.28a2.49,2.49,0,0,0-.73.11.5.5,0,0,0-.32.34,2.32,2.32,0,0,0-.09.76v6.94a2.41,2.41,0,0,0,.09.76.46.46,0,0,0,.32.33,2.81,2.81,0,0,0,.73.12v.28l-.81,0h-2c-.32,0-.58,0-.77,0v-.28a2.8,2.8,0,0,0,.72-.12.5.5,0,0,0,.33-.33,2.82,2.82,0,0,0,.08-.76v-6.94a2.72,2.72,0,0,0-.08-.76.53.53,0,0,0-.33-.34,2.47,2.47,0,0,0-.72-.11v-.28l.77,0,1,0,1,0Z" fill="#1a1a1a"/><path d="M428,543.7c0,.12.08.24.13.36l-1.73,2.56a2.7,2.7,0,0,0-.52,1.16.54.54,0,0,0,.31.57,2.32,2.32,0,0,0,.93.18v.28l-.45,0-.51,0h-1.6l-.52,0v-.28a1.63,1.63,0,0,0,.81-.4,4.44,4.44,0,0,0,.77-.89Zm-.77-4.81v.3a1.54,1.54,0,0,0-.85.14c-.11.1-.09.26,0,.47l5.23,8a2.31,2.31,0,0,0,.45.54,1,1,0,0,0,.49.16v.3l-.51,0-.69,0-1.13,0-.85,0v-.3a3.16,3.16,0,0,0,.9-.08q.19-.09,0-.39L425,539.89a2.71,2.71,0,0,0-.44-.55.87.87,0,0,0-.5-.15v-.3l.52,0,.69,0,1.07,0Zm5.07,0v.28a1.53,1.53,0,0,0-.81.39,4.49,4.49,0,0,0-.77.9l-2.26,3.36-.08-.36,1.59-2.38a3.65,3.65,0,0,0,.59-1.16.48.48,0,0,0-.19-.57,1.89,1.89,0,0,0-.87-.18v-.28l.54,0h1.07l.67,0Z" fill="#1a1a1a"/><path d="M439.64,538.7a4.44,4.44,0,0,1,2.33.6,4,4,0,0,1,1.55,1.73,6.14,6.14,0,0,1,.56,2.74,6.21,6.21,0,0,1-.57,2.74,4.41,4.41,0,0,1-1.57,1.83,4.16,4.16,0,0,1-2.31.66,4.48,4.48,0,0,1-2.34-.6,4.05,4.05,0,0,1-1.55-1.74,6.12,6.12,0,0,1-.55-2.73,6.21,6.21,0,0,1,.57-2.74,4.43,4.43,0,0,1,1.58-1.83A4.06,4.06,0,0,1,439.64,538.7Zm-.06.25a2.25,2.25,0,0,0-1.58.63,4.13,4.13,0,0,0-1,1.74,7.94,7.94,0,0,0-.37,2.56,7.43,7.43,0,0,0,.41,2.58,4.11,4.11,0,0,0,1.12,1.7,2.39,2.39,0,0,0,1.56.59,2.21,2.21,0,0,0,1.58-.63,4.14,4.14,0,0,0,1.05-1.74,8.36,8.36,0,0,0,.37-2.56,7.21,7.21,0,0,0-.42-2.59,4,4,0,0,0-1.11-1.69A2.4,2.4,0,0,0,439.58,539Z" fill="#1a1a1a"/><path d="M451,538.89v.28a2.36,2.36,0,0,0-.72.11.49.49,0,0,0-.33.34,2.32,2.32,0,0,0-.09.76v6.94a2.41,2.41,0,0,0,.09.76.46.46,0,0,0,.33.33,2.62,2.62,0,0,0,.72.07h1a3.23,3.23,0,0,0,1.07-.14,1.45,1.45,0,0,0,.66-.44,2.2,2.2,0,0,0,.37-.8,8.44,8.44,0,0,0,.19-1.23h.33a11.31,11.31,0,0,0-.05,1.14c0,.18,0,.44,0,.77s0,.67.08,1l-1.61,0h-3.43l-1.13,0-1.09,0v-.28a2.8,2.8,0,0,0,.72-.12.5.5,0,0,0,.33-.33,2.82,2.82,0,0,0,.08-.76v-6.94a2.72,2.72,0,0,0-.08-.76.53.53,0,0,0-.33-.34,2.47,2.47,0,0,0-.72-.11v-.28l.77,0,1,0,1,0Z" fill="#1a1a1a"/><path d="M462.33,538.7a4.48,4.48,0,0,1,2.34.6,4.08,4.08,0,0,1,1.55,1.73,6.14,6.14,0,0,1,.55,2.74,6.35,6.35,0,0,1-.56,2.74,4.43,4.43,0,0,1-1.58,1.83,4.11,4.11,0,0,1-2.31.66,4.44,4.44,0,0,1-2.33-.6,4,4,0,0,1-1.56-1.74,6.26,6.26,0,0,1-.55-2.73,6.07,6.07,0,0,1,.58-2.74,4.41,4.41,0,0,1,1.57-1.83A4.1,4.1,0,0,1,462.33,538.7Zm-.05.25a2.21,2.21,0,0,0-1.58.63,4.14,4.14,0,0,0-1.05,1.74,8.23,8.23,0,0,0-.37,2.56,7.19,7.19,0,0,0,.42,2.58,4,4,0,0,0,1.11,1.7,2.44,2.44,0,0,0,1.57.59,2.25,2.25,0,0,0,1.58-.63,4.13,4.13,0,0,0,1-1.74,8.07,8.07,0,0,0,.37-2.56,7.45,7.45,0,0,0-.41-2.59,4.15,4.15,0,0,0-1.11-1.69A2.4,2.4,0,0,0,462.28,539Z" fill="#1a1a1a"/><path d="M474.88,538.7a3.45,3.45,0,0,1,1.47.27,7,7,0,0,1,1,.64.55.55,0,0,0,.28.14c.17,0,.29-.29.35-.86h.32c0,.35,0,.77,0,1.26s0,1.15,0,2H478a9.81,9.81,0,0,0-.24-1.13,2.3,2.3,0,0,0-.46-.94,2.69,2.69,0,0,0-1.06-.8,3.39,3.39,0,0,0-1.36-.29,2.39,2.39,0,0,0-1.27.34,3,3,0,0,0-1,1,5,5,0,0,0-.62,1.55,8.42,8.42,0,0,0-.22,2,6.59,6.59,0,0,0,.81,3.69,2.85,2.85,0,0,0,2.52,1.17,2.58,2.58,0,0,0,.88-.14,3.88,3.88,0,0,0,.58-.29.93.93,0,0,0,.33-.34,1,1,0,0,0,.07-.43v-1.35a2.32,2.32,0,0,0-.11-.85.62.62,0,0,0-.41-.38,3.6,3.6,0,0,0-.89-.11v-.28l.59,0h2.22l.62,0v.28a1,1,0,0,0-.46.1.48.48,0,0,0-.21.33,5,5,0,0,0,0,.77v2.78H478a2.11,2.11,0,0,0-.11-.52c-.06-.19-.15-.28-.27-.28a.35.35,0,0,0-.17,0,1.91,1.91,0,0,0-.29.2,4.54,4.54,0,0,1-1,.55,3.45,3.45,0,0,1-1.21.2,4.93,4.93,0,0,1-2.47-.59,3.86,3.86,0,0,1-1.57-1.72,6,6,0,0,1-.55-2.67,6.35,6.35,0,0,1,.59-2.83,4.44,4.44,0,0,1,1.6-1.84A4.24,4.24,0,0,1,474.88,538.7Z" fill="#1a1a1a"/><path d="M485.71,538.89v.28a2.47,2.47,0,0,0-.72.11.53.53,0,0,0-.33.34,2.72,2.72,0,0,0-.08.76v6.94a2.82,2.82,0,0,0,.08.76.5.5,0,0,0,.33.33,2.8,2.8,0,0,0,.72.12v.28l-.8,0h-2l-.77,0v-.28a2.65,2.65,0,0,0,.72-.12.46.46,0,0,0,.33-.33,2.41,2.41,0,0,0,.09-.76v-6.94a2.32,2.32,0,0,0-.09-.76.49.49,0,0,0-.33-.34,2.36,2.36,0,0,0-.72-.11v-.28l.77,0,1,0,1,0Zm-.28-3a.7.7,0,0,1,.51-.13.51.51,0,0,1,.35.23.5.5,0,0,1,0,.4.73.73,0,0,1-.35.41,3.92,3.92,0,0,1-.68.33l-.89.35c-.34.14-.75.32-1.24.57l-.1-.18c.43-.33.78-.62,1.06-.86l.71-.66A3.89,3.89,0,0,1,485.43,535.84Z" fill="#1a1a1a"/><path d="M492.92,538.82l3.42,8.81a1.51,1.51,0,0,0,.48.71,1.08,1.08,0,0,0,.49.19v.28l-.69,0h-1.83c-.32,0-.58,0-.77,0v-.28a1.37,1.37,0,0,0,.91-.25q.19-.21-.09-.93l-2.6-7,.22-.18L490,546.54a3.84,3.84,0,0,0-.27.94,1,1,0,0,0,.08.61.65.65,0,0,0,.4.32,2.34,2.34,0,0,0,.72.12v.28l-.82,0h-1.38l-.46,0v-.28a1.5,1.5,0,0,0,.58-.33,2.39,2.39,0,0,0,.53-.89l3.29-8.49h.22Zm1.71,5.95v.28h-4.17l.14-.28Z" fill="#1a1a1a"/><path d="M512.48,538.89c0,.33-.06.65-.08,1s0,.54,0,.7,0,.33,0,.48,0,.28,0,.38h-.32a6.68,6.68,0,0,0-.23-1.31,1.13,1.13,0,0,0-.53-.68,2.34,2.34,0,0,0-1.11-.2h-1.16a2.75,2.75,0,0,0-.73.07.5.5,0,0,0-.33.33,2.72,2.72,0,0,0-.08.76v6.94a2.82,2.82,0,0,0,.08.76.5.5,0,0,0,.33.33,2.75,2.75,0,0,0,.73.07h1a3.08,3.08,0,0,0,1.33-.23,1.35,1.35,0,0,0,.66-.78,5.7,5.7,0,0,0,.3-1.46h.33a8.56,8.56,0,0,0-.05,1c0,.18,0,.44,0,.77s0,.67.08,1l-1.61,0h-3.43l-1.13,0-1.09,0v-.28a2.8,2.8,0,0,0,.72-.12.46.46,0,0,0,.32-.33,2.41,2.41,0,0,0,.09-.76v-6.94a2.32,2.32,0,0,0-.09-.76.5.5,0,0,0-.32-.34,2.47,2.47,0,0,0-.72-.11v-.28l1.09,0H511Zm-2.41,4.79V544h-2.56v-.28Zm.41-1.85c0,.54-.06.94-.05,1.22s0,.54,0,.77,0,.49,0,.77,0,.69.07,1.22h-.32c0-.3-.08-.59-.13-.88a1.41,1.41,0,0,0-.34-.69,1.12,1.12,0,0,0-.87-.28v-.28a1.1,1.1,0,0,0,.7-.19,1,1,0,0,0,.36-.48,3.2,3.2,0,0,0,.15-.61q0-.31.09-.57Z" fill="#1a1a1a"/><path d="M519.72,543.7l.12.36-1.72,2.56a2.7,2.7,0,0,0-.52,1.16.54.54,0,0,0,.31.57,2.32,2.32,0,0,0,.93.18v.28l-.45,0-.51,0h-1.6l-.52,0v-.28a1.63,1.63,0,0,0,.81-.4,4.44,4.44,0,0,0,.77-.89Zm-.77-4.81v.3a1.61,1.61,0,0,0-.86.14c-.1.1-.08.26,0,.47l5.23,8a2.31,2.31,0,0,0,.45.54,1,1,0,0,0,.49.16v.3l-.51,0-.69,0-1.13,0-.85,0v-.3a3.16,3.16,0,0,0,.9-.08q.19-.09,0-.39l-5.32-8.15a3.11,3.11,0,0,0-.44-.55.87.87,0,0,0-.5-.15v-.3l.52,0,.68,0,1.08,0Zm5.07,0v.28a1.53,1.53,0,0,0-.81.39,4.85,4.85,0,0,0-.78.9l-2.25,3.36-.08-.36,1.59-2.38a3.88,3.88,0,0,0,.59-1.16.47.47,0,0,0-.2-.57,1.81,1.81,0,0,0-.86-.18v-.28l.54,0h1.07l.67,0Z" fill="#1a1a1a"/><path d="M531.34,538.7a3.69,3.69,0,0,1,1.52.27,5.53,5.53,0,0,1,1.06.64c.18.14.32.15.42,0a1.44,1.44,0,0,0,.2-.77h.33c0,.35,0,.77,0,1.26s0,1.15,0,2h-.32c-.07-.4-.13-.72-.18-1a3.07,3.07,0,0,0-.21-.61,2.78,2.78,0,0,0-.31-.51,2.47,2.47,0,0,0-1.09-.83,3.81,3.81,0,0,0-1.39-.26,2.29,2.29,0,0,0-1.24.34,3,3,0,0,0-1,1,5.34,5.34,0,0,0-.62,1.55,9.17,9.17,0,0,0-.21,2,8.2,8.2,0,0,0,.24,2.08,4.72,4.72,0,0,0,.66,1.52,2.87,2.87,0,0,0,1,.93,2.57,2.57,0,0,0,1.25.31,3.79,3.79,0,0,0,1.32-.25,2.32,2.32,0,0,0,1.08-.81,2.55,2.55,0,0,0,.42-.88,11.74,11.74,0,0,0,.22-1.33h.32c0,.84,0,1.53,0,2s0,1,0,1.31h-.33a1.47,1.47,0,0,0-.18-.76c-.09-.1-.24-.09-.44,0a8.08,8.08,0,0,1-1.1.64,3.58,3.58,0,0,1-1.49.27,4.48,4.48,0,0,1-2.34-.6,4.05,4.05,0,0,1-1.55-1.74,6.12,6.12,0,0,1-.55-2.73,6.21,6.21,0,0,1,.57-2.74,4.43,4.43,0,0,1,1.58-1.83A4.06,4.06,0,0,1,531.34,538.7Z" fill="#1a1a1a"/><path d="M542,538.89v.28a2.49,2.49,0,0,0-.73.11.53.53,0,0,0-.33.34,2.72,2.72,0,0,0-.08.76v6.94a2.82,2.82,0,0,0,.08.76.5.5,0,0,0,.33.33,2.75,2.75,0,0,0,.73.07h1a3.23,3.23,0,0,0,1.07-.14,1.45,1.45,0,0,0,.66-.44,2.2,2.2,0,0,0,.37-.8,8.44,8.44,0,0,0,.19-1.23h.32c0,.29,0,.67,0,1.14,0,.18,0,.44,0,.77s0,.67.08,1l-1.61,0h-3.43l-1.13,0-1.1,0v-.28a2.81,2.81,0,0,0,.73-.12.46.46,0,0,0,.32-.33,2.41,2.41,0,0,0,.09-.76v-6.94a2.32,2.32,0,0,0-.09-.76.5.5,0,0,0-.32-.34,2.49,2.49,0,0,0-.73-.11v-.28l.77,0,1,0,1,0Z" fill="#1a1a1a"/><path d="M557.38,538.89v.28a1.79,1.79,0,0,0-.72.14.62.62,0,0,0-.33.41,2.81,2.81,0,0,0-.08.8v4.21a10.45,10.45,0,0,1-.13,1.71,3.36,3.36,0,0,1-.45,1.26,2.45,2.45,0,0,1-1,.94,3.21,3.21,0,0,1-1.54.36,4.83,4.83,0,0,1-1.28-.16,2.4,2.4,0,0,1-1.07-.59,3.43,3.43,0,0,1-.64-.83,3.31,3.31,0,0,1-.32-1.06,13.72,13.72,0,0,1-.08-1.59v-4.39a2.72,2.72,0,0,0-.08-.76.53.53,0,0,0-.33-.34,2.47,2.47,0,0,0-.72-.11v-.28l.77,0,1,0,1,0,.81,0v.28a2.36,2.36,0,0,0-.72.11.49.49,0,0,0-.33.34,2.32,2.32,0,0,0-.09.76V545c0,.48,0,.93.07,1.35a3.9,3.9,0,0,0,.29,1.12,1.69,1.69,0,0,0,.66.76,2.3,2.3,0,0,0,1.19.27,2.53,2.53,0,0,0,1.65-.47,2.4,2.4,0,0,0,.81-1.29,6.67,6.67,0,0,0,.23-1.86v-4.37a2.1,2.1,0,0,0-.12-.8.76.76,0,0,0-.4-.41,2,2,0,0,0-.75-.14v-.28l.66,0,.77,0,.72,0Z" fill="#1a1a1a"/><path d="M563.44,538.74a2.65,2.65,0,0,1,1.06.16,4,4,0,0,1,.65.36l.27.15a.52.52,0,0,0,.21,0,.21.21,0,0,0,.2-.15,2.33,2.33,0,0,0,.1-.46h.32c0,.16,0,.35,0,.57s0,.5,0,.86,0,.84,0,1.42h-.32a4,4,0,0,0-.29-1.28,2.44,2.44,0,0,0-.74-1,1.94,1.94,0,0,0-1.26-.39,1.76,1.76,0,0,0-1.23.44,1.54,1.54,0,0,0-.48,1.18,1.75,1.75,0,0,0,.32,1.06,3.42,3.42,0,0,0,.86.77l1.17.73a15.33,15.33,0,0,1,1.3.89,4,4,0,0,1,.89,1,2.43,2.43,0,0,1,.33,1.29,2.52,2.52,0,0,1-.41,1.49,2.56,2.56,0,0,1-1.07.88,3.81,3.81,0,0,1-1.49.29,3.15,3.15,0,0,1-1.17-.17,4.39,4.39,0,0,1-.75-.35,1,1,0,0,0-.47-.19.21.21,0,0,0-.2.15,1.72,1.72,0,0,0-.11.46h-.32a6.73,6.73,0,0,0,0-.69c0-.26,0-.61,0-1v-1.63h.33a5.61,5.61,0,0,0,.31,1.57,2.53,2.53,0,0,0,.8,1.17,2.17,2.17,0,0,0,1.44.44,2,2,0,0,0,.87-.19,1.56,1.56,0,0,0,.68-.6,1.91,1.91,0,0,0,.26-1.07,1.82,1.82,0,0,0-.27-1,3,3,0,0,0-.76-.8,12.08,12.08,0,0,0-1.15-.76c-.44-.27-.85-.55-1.23-.83a3.52,3.52,0,0,1-.92-1,2.5,2.5,0,0,1-.34-1.34,2.32,2.32,0,0,1,.37-1.36,2.22,2.22,0,0,1,1-.8A3.27,3.27,0,0,1,563.44,538.74Z" fill="#1a1a1a"/><path d="M573.67,538.89v.28a2.47,2.47,0,0,0-.72.11.5.5,0,0,0-.32.34,2.32,2.32,0,0,0-.09.76v6.94a2.41,2.41,0,0,0,.09.76.46.46,0,0,0,.32.33,2.8,2.8,0,0,0,.72.12v.28l-.8,0h-2l-.78,0v-.28a2.81,2.81,0,0,0,.73-.12.5.5,0,0,0,.33-.33,2.82,2.82,0,0,0,.08-.76v-6.94a2.72,2.72,0,0,0-.08-.76.53.53,0,0,0-.33-.34,2.49,2.49,0,0,0-.73-.11v-.28l.78,0,1,0,1,0Z" fill="#1a1a1a"/><path d="M585.28,538.89v.28a1.31,1.31,0,0,0-.57.33,2.19,2.19,0,0,0-.54.89l-3.29,8.49h-.22l-3.42-8.81a1.45,1.45,0,0,0-.47-.71,1.12,1.12,0,0,0-.49-.19v-.28l.69,0,.81,0,1,0,.77,0v.28a2,2,0,0,0-.72.12.38.38,0,0,0-.27.34,1.92,1.92,0,0,0,.16.72l2.61,6.9-.23.24,2.44-6.33a3.35,3.35,0,0,0,.28-1.18.68.68,0,0,0-.32-.61,1.93,1.93,0,0,0-.9-.2v-.28l.83,0,.78,0,.6,0Z" fill="#1a1a1a"/><path d="M590.91,538.82l3.42,8.81a1.44,1.44,0,0,0,.47.71,1.12,1.12,0,0,0,.49.19v.28l-.69,0h-1.83l-.77,0v-.28a1.33,1.33,0,0,0,.91-.25c.13-.14.1-.45-.08-.93l-2.61-7,.23-.18L588,546.54a3.37,3.37,0,0,0-.26.94,1,1,0,0,0,.07.61.68.68,0,0,0,.41.32,2.34,2.34,0,0,0,.72.12v.28l-.82,0h-1.39l-.45,0v-.28a1.41,1.41,0,0,0,.57-.33,2.15,2.15,0,0,0,.53-.89l3.29-8.49h.23Zm1.71,5.95v.28h-4.18l.14-.28Z" fill="#1a1a1a"/></svg>